<svg xmlns="http://www.w3.org/2000/svg" id="Calque_1" viewBox="0 0 2484.75 505.48"><defs><style>.cls-1{fill:#fff;}.cls-2{fill:#009cb9;}</style></defs><g><path class="cls-1" d="M959.33,413.98l62.41-36.5c14.28,37.55,42.84,56.59,85.15,56.59s59.24-16.4,59.24-39.14c0-13.22-5.82-23.27-17.45-30.15-11.64-7.4-32.26-15.34-62.41-23.8-33.32-10.05-53.42-17.98-76.69-34.38-22.74-16.92-34.91-42.31-34.91-76.16s11.64-60.3,35.44-79.87c23.8-20.1,52.89-30.15,86.21-30.15,59.77,0,106.84,30.68,132.22,83.04l-61.35,35.44c-14.81-31.73-38.61-47.6-70.87-47.6-30.15,0-48.66,15.34-48.66,37.02,0,11.64,4.76,21.16,14.28,28.56,10.05,6.88,28.56,14.81,56.06,23.27l25.39,8.46c5.82,1.59,13.75,4.76,23.8,8.99,10.05,3.7,17.98,7.4,23.27,11.11,11.11,6.88,28.03,20.1,34.91,32.79,7.93,12.69,13.75,31.2,13.75,52.36,0,34.38-12.69,61.35-37.55,81.45-24.86,20.1-57.12,30.15-96.79,30.15-73.52,0-124.82-34.91-145.45-91.5Z"></path><path class="cls-1" d="M1323.74,127.84h72.99V498.07h-72.99V127.84Z"></path><path class="cls-1" d="M1955.84,428.26h156.03v69.82h-229.02V127.84h226.37v69.82h-153.38v78.8h140.16v68.76h-140.16v83.04Z"></path><path class="cls-1" d="M2405.94,498.07l-74.57-128.52h-55.54v128.52h-72.99V127.84h148.09c34.38,0,63.47,12.17,87.27,35.97,23.8,23.8,35.97,52.89,35.97,86.74,0,46.02-28.56,88.33-71.4,107.9l81.98,139.63h-78.81Zm-130.11-302v109.48h75.1c27.5,0,50.25-24.86,50.25-55.01s-22.74-54.48-50.25-54.48h-75.1Z"></path><path class="cls-1" d="M1629.86,127.84c50.77,0,93.09,17.98,126.94,53.42,34.38,35.43,51.3,79.33,51.3,131.7s-16.92,96.26-51.3,131.7c-33.85,35.43-76.16,53.42-126.94,53.42h-130.3V127.84h130.3Zm-3.23,300.42c32.26,0,58.18-10.58,78.28-31.73,20.1-21.68,30.15-49.19,30.15-83.57s-10.05-61.88-30.15-83.04c-20.1-21.69-46.01-32.26-78.28-32.26h-54.08v230.6h54.08Z"></path></g><g><path class="cls-1" d="M485.96,492.79c22.36,16.36,51.25,16.46,73.64,.24l226.45-164.07c16.47-11.97,26.73-32.59,26.77-55.07V121.05l-288.16,210.11-70.5-52.24c-45.09-32.46-101.01-32.26-145.87,.58l-56.58,41.41,234.26,171.89Z"></path><path class="cls-2" d="M425.38,208.56s9.45,2.98,27.75,14.98l71.4,53.55,125.66-91.25L413.74,12.34c-22.36-16.36-51.25-16.46-73.64-.24L0,258.46l56.69,41.5c22.58,16.5,47.93,24.77,73.31,24.77s50.2-8.1,72.65-24.26l104.61-76.34c36.04-26.38,79.15-31.33,118.12-15.57"></path></g></svg>